<svg width="24" height="16" viewBox="0 0 24 16" fill="none" xmlns="http://www.w3.org/2000/svg">
<path d="M16.3335 6.91675C18.1318 6.91675 19.5727 5.46508 19.5727 3.66675C19.5727 1.86841 18.1318 0.416748 16.3335 0.416748C14.5352 0.416748 13.0835 1.86841 13.0835 3.66675C13.0835 5.46508 14.5352 6.91675 16.3335 6.91675ZM7.66683 6.91675C9.46516 6.91675 10.906 5.46508 10.906 3.66675C10.906 1.86841 9.46516 0.416748 7.66683 0.416748C5.8685 0.416748 4.41683 1.86841 4.41683 3.66675C4.41683 5.46508 5.8685 6.91675 7.66683 6.91675ZM7.66683 9.08341C5.14266 9.08341 0.0834961 10.3509 0.0834961 12.8751V15.5834H15.2502V12.8751C15.2502 10.3509 10.191 9.08341 7.66683 9.08341ZM16.3335 9.08341C16.0193 9.08341 15.6618 9.10508 15.2827 9.13758C16.5393 10.0476 17.4168 11.2717 17.4168 12.8751V15.5834H23.9168V12.8751C23.9168 10.3509 18.8577 9.08341 16.3335 9.08341Z" fill="white"/>
</svg>
