<svg width="20" height="21" viewBox="0 0 20 21" fill="none" xmlns="http://www.w3.org/2000/svg">
<path d="M20 7.91165H12.4662L15.5108 4.7781C12.4773 1.7779 7.56583 1.66678 4.53229 4.66698C1.49875 7.6783 1.49875 12.5342 4.53229 15.5455C7.56583 18.5568 12.4773 18.5568 15.5108 15.5455C17.022 14.0565 17.7776 12.3119 17.7776 10.1118H20C20 12.3119 19.0222 15.1677 17.0665 17.1012C13.1662 20.9681 6.83244 20.9681 2.93218 17.1012C-0.956972 13.2453 -0.990308 6.97825 2.90996 3.12243C6.81022 -0.733383 13.0662 -0.733383 16.9665 3.12243L20 0V7.91165ZM10.5549 5.55593V10.2785L14.4441 12.5897L13.644 13.9343L8.88814 11.1119V5.55593H10.5549Z" fill="white"/>
</svg>
