<svg width="24" height="22" viewBox="0 0 24 22" fill="none" xmlns="http://www.w3.org/2000/svg">
<path fill-rule="evenodd" clip-rule="evenodd" d="M4.12857 16.3815H19.8011L22.2501 9.59883C22.3771 9.63984 22.5138 9.66132 22.6544 9.66132C23.3965 9.66132 24 9.05981 24 8.31573C24 7.5736 23.3985 6.97014 22.6544 6.97014C21.9123 6.97014 21.3088 7.57165 21.3088 8.31573C21.3088 8.60868 21.4026 8.87818 21.5607 9.09887L20.1702 10.2433C18.2231 11.8447 17.0025 11.1026 17.3834 8.61453L17.5982 7.21426C17.6724 7.22793 17.7505 7.23379 17.8286 7.23379C18.5708 7.23379 19.1742 6.63227 19.1742 5.88819C19.1742 5.14607 18.5727 4.5426 17.8286 4.5426C17.0865 4.5426 16.483 5.14411 16.483 5.88819C16.483 6.31199 16.6803 6.69086 16.9869 6.93694L16.6529 7.46424C15.0164 9.92107 13.8094 8.97974 13.327 6.5522L12.4658 2.58573C12.9482 2.38067 13.288 1.90414 13.288 1.34559C13.288 0.603467 12.6865 0 11.9424 0C11.2003 0 10.5968 0.601514 10.5968 1.34559C10.5968 1.96664 11.0167 2.48808 11.5869 2.64432L11.0284 4.90585C10.5441 6.97795 9.96403 11.1065 7.3412 7.58727L6.9135 7.00529C7.25136 6.76117 7.47205 6.36276 7.47205 5.91358C7.47205 5.17145 6.87053 4.56799 6.12645 4.56799C5.38433 4.56799 4.78086 5.1695 4.78086 5.91358C4.78086 6.65571 5.38237 7.25918 6.12645 7.25918C6.22996 7.25918 6.33152 7.24746 6.42916 7.22402L6.519 8.13801C6.69477 9.38596 6.91936 11.0753 5.48588 10.9952C4.775 10.9561 4.50745 10.714 3.96452 10.3273L2.41387 9.22777C2.58768 9.00122 2.69119 8.71804 2.69119 8.40947C2.69119 7.66735 2.08967 7.06388 1.34559 7.06388C0.603467 7.06388 0 7.66539 0 8.40947C0 9.15355 0.601514 9.75507 1.34559 9.75507C1.52136 9.75507 1.68736 9.72187 1.84165 9.66132L4.12857 16.3815ZM4.11685 18.2583H19.8402V21.0491H4.11685V18.2583Z" fill="#FFE600"/>
</svg>
