<svg width="18" height="20" viewBox="0 0 18 20" fill="none" xmlns="http://www.w3.org/2000/svg">
<path d="M6 1.43027V0H12V1.43027H6ZM8.25 12.0858H9.75V6.6031H8.25V12.0858ZM9 20C7.76667 20 6.60417 19.7735 5.5125 19.3206C4.42083 18.8677 3.46667 18.2519 2.65 17.4732C1.83333 16.6945 1.1875 15.7847 0.7125 14.7437C0.2375 13.7028 0 12.5944 0 11.4184C0 10.2424 0.2375 9.13389 0.7125 8.09297C1.1875 7.05205 1.83333 6.14223 2.65 5.36353C3.46667 4.58482 4.42083 3.96901 5.5125 3.51609C6.60417 3.06317 7.76667 2.83671 9 2.83671C10.1167 2.83671 11.1667 3.01549 12.15 3.37306C13.1333 3.73063 14.0083 4.22725 14.775 4.86293L16.05 3.6472L17.1 4.64839L15.825 5.86412C16.425 6.4998 16.9375 7.27056 17.3625 8.1764C17.7875 9.08224 18 10.1629 18 11.4184C18 12.5944 17.7625 13.7028 17.2875 14.7437C16.8125 15.7847 16.1667 16.6945 15.35 17.4732C14.5333 18.2519 13.5792 18.8677 12.4875 19.3206C11.3958 19.7735 10.2333 20 9 20ZM9 18.5697C11.0833 18.5697 12.8542 17.8745 14.3125 16.4839C15.7708 15.0934 16.5 13.4048 16.5 11.4184C16.5 9.43186 15.7708 7.74334 14.3125 6.3528C12.8542 4.96226 11.0833 4.26698 9 4.26698C6.91667 4.26698 5.14583 4.96226 3.6875 6.3528C2.22917 7.74334 1.5 9.43186 1.5 11.4184C1.5 13.4048 2.22917 15.0934 3.6875 16.4839C5.14583 17.8745 6.91667 18.5697 9 18.5697Z" fill="#BEFF17"/>
</svg>
